rat_emergent_best
version=1
nRows=83
nColumns=15
inDegrees=yes
endheader
time	sacrum_pitch	sacrum_roll	sacrum_yaw	sacrum_x	sacrum_y	sacrum_z	sacroiliac_flx	hip_flx	hip_add	hip_int	knee_flx	ankle_flx	ankle_add	ankle_int
1.500000	22.370217	0.000000	0.000000	0.000000	0.050000	0.000000	3.700000	35.552353	-10.000000	0.000000	-132.893478	17.924867	-5.000000	0.000000
1.500800	22.370217	0.000000	0.000000	0.000000	0.050000	0.000000	3.700000	35.425663	-10.000000	0.000000	-132.845835	17.924123	-5.000000	0.000000
1.501600	22.370217	0.000000	0.000000	0.000000	0.050000	0.000000	3.700000	35.298741	-10.000000	0.000000	-132.798019	17.923346	-5.000000	0.000000
1.502400	22.370217	0.000000	0.000000	0.000000	0.050000	0.000000	3.700000	35.171589	-10.000000	0.000000	-132.750037	17.922538	-5.000000	0.000000
1.503200	22.370217	0.000000	0.000000	0.000000	0.050000	0.000000	3.700000	35.044210	-10.000000	0.000000	-132.701895	17.921700	-5.000000	0.000000
1.504000	22.370217	0.000000	0.000000	0.000000	0.050000	0.000000	3.700000	34.916605	-10.000000	0.000000	-132.653599	17.920833	-5.000000	0.000000
1.504800	22.370217	0.000000	0.000000	0.000000	0.050000	0.000000	3.700000	34.788777	-10.000000	0.000000	-132.605156	17.919939	-5.000000	0.000000
1.505600	22.370217	0.000000	0.000000	0.000000	0.050000	0.000000	3.700000	34.660727	-10.000000	0.000000	-132.556570	17.919018	-5.000000	0.000000
1.506400	22.370217	0.000000	0.000000	0.000000	0.050000	0.000000	3.700000	34.532458	-10.000000	0.000000	-132.507846	17.918073	-5.000000	0.000000
1.507200	22.370217	0.000000	0.000000	0.000000	0.050000	0.000000	3.700000	34.403969	-10.000000	0.000000	-132.458992	17.917105	-5.000000	0.000000
1.508000	22.370217	0.000000	0.000000	0.000000	0.050000	0.000000	3.700000	34.275265	-10.000000	0.000000	-132.410011	17.916115	-5.000000	0.000000
1.508800	22.370217	0.000000	0.000000	0.000000	0.050000	0.000000	3.700000	34.146344	-10.000000	0.000000	-132.360908	17.915104	-5.000000	0.000000
1.509600	22.370217	0.000000	0.000000	0.000000	0.050000	0.000000	3.700000	34.017210	-10.000000	0.000000	-132.311689	17.914073	-5.000000	0.000000
1.510400	22.370217	0.000000	0.000000	0.000000	0.050000	0.000000	3.700000	33.887864	-10.000000	0.000000	-132.262357	17.913024	-5.000000	0.000000
1.511200	22.370217	0.000000	0.000000	0.000000	0.050000	0.000000	3.700000	33.758306	-10.000000	0.000000	-132.212919	17.911957	-5.000000	0.000000
1.512000	22.370217	0.000000	0.000000	0.000000	0.050000	0.000000	3.700000	33.628539	-10.000000	0.000000	-132.163377	17.910874	-5.000000	0.000000
1.512800	22.370217	0.000000	0.000000	0.000000	0.050000	0.000000	3.700000	33.498563	-10.000000	0.000000	-132.113737	17.909775	-5.000000	0.000000
1.513600	22.370217	0.000000	0.000000	0.000000	0.050000	0.000000	3.700000	33.368379	-10.000000	0.000000	-132.064003	17.908660	-5.000000	0.000000
1.514400	22.370217	0.000000	0.000000	0.000000	0.050000	0.000000	3.700000	33.237988	-10.000000	0.000000	-132.014178	17.907532	-5.000000	0.000000
1.515200	22.370217	0.000000	0.000000	0.000000	0.050000	0.000000	3.700000	33.107393	-10.000000	0.000000	-131.964268	17.906390	-5.000000	0.000000
1.516000	22.370217	0.000000	0.000000	0.000000	0.050000	0.000000	3.700000	32.976593	-10.000000	0.000000	-131.914275	17.905235	-5.000000	0.000000
1.516800	22.370217	0.000000	0.000000	0.000000	0.050000	0.000000	3.700000	32.845590	-10.000000	0.000000	-131.864204	17.904069	-5.000000	0.000000
1.517600	22.370217	0.000000	0.000000	0.000000	0.050000	0.000000	3.700000	32.714384	-10.000000	0.000000	-131.814059	17.902891	-5.000000	0.000000
1.518400	22.370217	0.000000	0.000000	0.000000	0.050000	0.000000	3.700000	32.582977	-10.000000	0.000000	-131.763842	17.901702	-5.000000	0.000000
1.519200	22.370217	0.000000	0.000000	0.000000	0.050000	0.000000	3.700000	32.451369	-10.000000	0.000000	-131.713559	17.900503	-5.000000	0.000000
1.520000	22.370217	0.000000	0.000000	0.000000	0.050000	0.000000	3.700000	32.319561	-10.000000	0.000000	-131.663212	17.899295	-5.000000	0.000000
1.520800	22.370217	0.000000	0.000000	0.000000	0.050000	0.000000	3.700000	32.187555	-10.000000	0.000000	-131.612805	17.898077	-5.000000	0.000000
1.521600	22.370217	0.000000	0.000000	0.000000	0.050000	0.000000	3.700000	32.055351	-10.000000	0.000000	-131.562341	17.896852	-5.000000	0.000000
1.522400	22.370217	0.000000	0.000000	0.000000	0.050000	0.000000	3.700000	31.922949	-10.000000	0.000000	-131.511823	17.895618	-5.000000	0.000000
1.523200	22.370217	0.000000	0.000000	0.000000	0.050000	0.000000	3.700000	31.790350	-10.000000	0.000000	-131.461256	17.894377	-5.000000	0.000000
1.524000	22.370217	0.000000	0.000000	0.000000	0.050000	0.000000	3.700000	31.657556	-10.000000	0.000000	-131.410641	17.893129	-5.000000	0.000000
1.524800	22.370217	0.000000	0.000000	0.000000	0.050000	0.000000	3.700000	31.524566	-10.000000	0.000000	-131.359984	17.891874	-5.000000	0.000000
1.525600	22.370217	0.000000	0.000000	0.000000	0.050000	0.000000	3.700000	31.391382	-10.000000	0.000000	-131.309285	17.890614	-5.000000	0.000000
1.526400	22.370217	0.000000	0.000000	0.000000	0.050000	0.000000	3.700000	31.258004	-10.000000	0.000000	-131.258549	17.889348	-5.000000	0.000000
1.527200	22.370217	0.000000	0.000000	0.000000	0.050000	0.000000	3.700000	31.124433	-10.000000	0.000000	-131.207779	17.888077	-5.000000	0.000000
1.528000	22.370217	0.000000	0.000000	0.000000	0.050000	0.000000	3.700000	30.990669	-10.000000	0.000000	-131.156977	17.886801	-5.000000	0.000000
1.528800	22.370217	0.000000	0.000000	0.000000	0.050000	0.000000	3.700000	30.856713	-10.000000	0.000000	-131.106147	17.885521	-5.000000	0.000000
1.529600	22.370217	0.000000	0.000000	0.000000	0.050000	0.000000	3.700000	30.722565	-10.000000	0.000000	-131.055291	17.884237	-5.000000	0.000000
1.530400	22.370217	0.000000	0.000000	0.000000	0.050000	0.000000	3.700000	30.588227	-10.000000	0.000000	-131.004413	17.882949	-5.000000	0.000000
1.531200	22.370217	0.000000	0.000000	0.000000	0.050000	0.000000	3.700000	30.453698	-10.000000	0.000000	-130.953514	17.881658	-5.000000	0.000000
1.532000	22.370217	0.000000	0.000000	0.000000	0.050000	0.000000	3.700000	30.318979	-10.000000	0.000000	-130.902599	17.880364	-5.000000	0.000000
1.532800	22.370217	0.000000	0.000000	0.000000	0.050000	0.000000	3.700000	30.184070	-10.000000	0.000000	-130.851669	17.879068	-5.000000	0.000000
1.533600	22.370217	0.000000	0.000000	0.000000	0.050000	0.000000	3.700000	30.048973	-10.000000	0.000000	-130.800727	17.877770	-5.000000	0.000000
1.534400	22.370217	0.000000	0.000000	0.000000	0.050000	0.000000	3.700000	29.913687	-10.000000	0.000000	-130.749777	17.876469	-5.000000	0.000000
1.535200	22.370217	0.000000	0.000000	0.000000	0.050000	0.000000	3.700000	29.778214	-10.000000	0.000000	-130.698820	17.875167	-5.000000	0.000000
1.536000	22.370217	0.000000	0.000000	0.000000	0.050000	0.000000	3.700000	29.642553	-10.000000	0.000000	-130.647859	17.873864	-5.000000	0.000000
1.536800	22.370217	0.000000	0.000000	0.000000	0.050000	0.000000	3.700000	29.506703	-10.000000	0.000000	-130.596871	17.872545	-5.000000	0.000000
1.537600	22.370217	0.000000	0.000000	0.000000	0.050000	0.000000	3.700000	29.370645	-10.000000	0.000000	-130.545587	17.871153	-5.000000	0.000000
1.538400	22.370217	0.000000	0.000000	0.000000	0.050000	0.000000	3.700000	29.234382	-10.000000	0.000000	-130.493895	17.869685	-5.000000	0.000000
1.539200	22.370217	0.000000	0.000000	0.000000	0.050000	0.000000	3.700000	29.097924	-10.000000	0.000000	-130.441799	17.868140	-5.000000	0.000000
1.540000	22.370217	0.000000	0.000000	0.000000	0.050000	0.000000	3.700000	28.961282	-10.000000	0.000000	-130.389314	17.866519	-5.000000	0.000000
1.540800	22.370217	0.000000	0.000000	0.000000	0.050000	0.000000	3.700000	28.824462	-10.000000	0.000000	-130.336453	17.864821	-5.000000	0.000000
1.541600	22.370217	0.000000	0.000000	0.000000	0.050000	0.000000	3.700000	28.687469	-10.000000	0.000000	-130.283225	17.863046	-5.000000	0.000000
1.542400	22.370217	0.000000	0.000000	0.000000	0.050000	0.000000	3.700000	28.550304	-10.000000	0.000000	-130.229644	17.861195	-5.000000	0.000000
1.543200	22.370217	0.000000	0.000000	0.000000	0.050000	0.000000	3.700000	28.412971	-10.000000	0.000000	-130.175719	17.859269	-5.000000	0.000000
1.544000	22.370217	0.000000	0.000000	0.000000	0.050000	0.000000	3.700000	28.275471	-10.000000	0.000000	-130.121459	17.857268	-5.000000	0.000000
1.544800	22.370217	0.000000	0.000000	0.000000	0.050000	0.000000	3.700000	28.137805	-10.000000	0.000000	-130.066875	17.855193	-5.000000	0.000000
1.545600	22.370217	0.000000	0.000000	0.000000	0.050000	0.000000	3.700000	27.999973	-10.000000	0.000000	-130.011974	17.853045	-5.000000	0.000000
1.546400	22.370217	0.000000	0.000000	0.000000	0.050000	0.000000	3.700000	27.861976	-10.000000	0.000000	-129.956766	17.850824	-5.000000	0.000000
1.547200	22.370217	0.000000	0.000000	0.000000	0.050000	0.000000	3.700000	27.723815	-10.000000	0.000000	-129.901258	17.848531	-5.000000	0.000000
1.548000	22.370217	0.000000	0.000000	0.000000	0.050000	0.000000	3.700000	27.585490	-10.000000	0.000000	-129.845459	17.846168	-5.000000	0.000000
1.548800	22.370217	0.000000	0.000000	0.000000	0.050000	0.000000	3.700000	27.447001	-10.000000	0.000000	-129.789375	17.843734	-5.000000	0.000000
1.549600	22.370217	0.000000	0.000000	0.000000	0.050000	0.000000	3.700000	27.308347	-10.000000	0.000000	-129.733015	17.841232	-5.000000	0.000000
1.550400	22.370217	0.000000	0.000000	0.000000	0.050000	0.000000	3.700000	27.169530	-10.000000	0.000000	-129.676386	17.838662	-5.000000	0.000000
1.551200	22.370217	0.000000	0.000000	0.000000	0.050000	0.000000	3.700000	27.030550	-10.000000	0.000000	-129.619494	17.836025	-5.000000	0.000000
1.552000	22.370217	0.000000	0.000000	0.000000	0.050000	0.000000	3.700000	26.891406	-10.000000	0.000000	-129.562345	17.833321	-5.000000	0.000000
1.552800	22.370217	0.000000	0.000000	0.000000	0.050000	0.000000	3.700000	26.752098	-10.000000	0.000000	-129.504947	17.830553	-5.000000	0.000000
1.553600	22.370217	0.000000	0.000000	0.000000	0.050000	0.000000	3.700000	26.612627	-10.000000	0.000000	-129.447306	17.827720	-5.000000	0.000000
1.554400	22.370217	0.000000	0.000000	0.000000	0.050000	0.000000	3.700000	26.472992	-10.000000	0.000000	-129.389427	17.824824	-5.000000	0.000000
1.555200	22.370217	0.000000	0.000000	0.000000	0.050000	0.000000	3.700000	26.333194	-10.000000	0.000000	-129.331316	17.821866	-5.000000	0.000000
1.556000	22.370217	0.000000	0.000000	0.000000	0.050000	0.000000	3.700000	26.195561	-10.000000	0.000000	-129.274072	17.818523	-5.000000	0.000000
1.556800	22.370217	0.000000	0.000000	0.000000	0.050000	0.000000	3.700000	26.072489	-10.000000	0.000000	-129.222372	17.814184	-5.000000	0.000000
1.557600	22.370217	0.000000	0.000000	0.000000	0.050000	0.000000	3.700000	25.974039	-10.000000	0.000000	-129.178890	17.808929	-5.000000	0.000000
1.558400	22.370217	0.000000	0.000000	0.000000	0.050000	0.000000	3.700000	25.904596	-10.000000	0.000000	-129.144506	17.803117	-5.000000	0.000000
1.559200	22.370217	0.000000	0.000000	0.000000	0.050000	0.000000	3.700000	25.863926	-10.000000	0.000000	-129.118845	17.797263	-5.000000	0.000000
1.560000	22.370217	0.000000	0.000000	0.000000	0.050000	0.000000	3.700000	25.847909	-10.000000	0.000000	-129.100456	17.791851	-5.000000	0.000000
1.560800	22.370217	0.000000	0.000000	0.000000	0.050000	0.000000	3.700000	25.849518	-10.000000	0.000000	-129.087557	17.787241	-5.000000	0.000000
1.561600	22.370217	0.000000	0.000000	0.000000	0.050000	0.000000	3.700000	25.863284	-10.000000	0.000000	-129.079501	17.783428	-5.000000	0.000000
1.562400	22.370217	0.000000	0.000000	0.000000	0.050000	0.000000	3.700000	25.887371	-10.000000	0.000000	-129.076163	17.780327	-5.000000	0.000000
1.563200	22.370217	0.000000	0.000000	0.000000	0.050000	0.000000	3.700000	25.920750	-10.000000	0.000000	-129.077326	17.777766	-5.000000	0.000000
1.564000	22.370217	0.000000	0.000000	0.000000	0.050000	0.000000	3.700000	25.962466	-10.000000	0.000000	-129.082289	17.775682	-5.000000	0.000000
1.564800	22.370217	0.000000	0.000000	0.000000	0.050000	0.000000	3.700000	26.011704	-10.000000	0.000000	-129.090848	17.774051	-5.000000	0.000000
1.565600	22.370217	0.000000	0.000000	0.000000	0.050000	0.000000	3.700000	26.067732	-10.000000	0.000000	-129.102914	17.772852	-5.000000	0.000000
